<mxfile host="65bd71144e">
    <diagram id="aWvKb5MZmkS2hJG052X3" name="ページ1">
        <mxGraphModel dx="1420" dy="2449" grid="1" gridSize="10" guides="1" tooltips="1" connect="1" arrows="1" fold="1" page="1" pageScale="1" pageWidth="827" pageHeight="1169" math="0" shadow="0">
            <root>
                <mxCell id="0"/>
                <mxCell id="1" parent="0"/>
                <mxCell id="49" value="キャンセル" style="rounded=0;whiteSpace=wrap;html=1;verticalAlign=top;align=left;" vertex="1" parent="1">
                    <mxGeometry x="670" y="-220" width="740" height="490" as="geometry"/>
                </mxCell>
                <mxCell id="48" value="キャンセル料徴収" style="rounded=0;whiteSpace=wrap;html=1;verticalAlign=top;align=left;" vertex="1" parent="1">
                    <mxGeometry x="1060" y="-160" width="220" height="270" as="geometry"/>
                </mxCell>
                <mxCell id="45" value="キャンセルポリシー" style="rounded=0;whiteSpace=wrap;html=1;verticalAlign=top;align=left;" vertex="1" parent="1">
                    <mxGeometry x="730" y="-160" width="300" height="290" as="geometry"/>
                </mxCell>
                <mxCell id="21" value="予約" style="rounded=0;whiteSpace=wrap;html=1;verticalAlign=top;align=left;" vertex="1" parent="1">
                    <mxGeometry x="400" y="280" width="1290" height="790" as="geometry"/>
                </mxCell>
                <mxCell id="18" value="来店予定" style="rounded=0;whiteSpace=wrap;html=1;verticalAlign=top;align=left;" vertex="1" parent="1">
                    <mxGeometry x="750" y="320" width="360" height="270" as="geometry"/>
                </mxCell>
                <mxCell id="16" value="コース" style="rounded=0;whiteSpace=wrap;html=1;verticalAlign=top;align=left;" vertex="1" parent="1">
                    <mxGeometry x="220" y="70" width="266" height="150" as="geometry"/>
                </mxCell>
                <mxCell id="10" value="予約タイプ&lt;br style=&quot;border-color: var(--border-color);&quot;&gt;&lt;div style=&quot;border-color: var(--border-color); text-align: left;&quot;&gt;&lt;span style=&quot;border-color: var(--border-color); background-color: initial;&quot;&gt;・コース料理&lt;/span&gt;&lt;/div&gt;&lt;div style=&quot;border-color: var(--border-color); text-align: left;&quot;&gt;&lt;span style=&quot;border-color: var(--border-color); background-color: initial;&quot;&gt;・席のみ&lt;/span&gt;&lt;/div&gt;" style="ellipse;whiteSpace=wrap;html=1;" vertex="1" parent="1">
                    <mxGeometry x="500" y="560" width="120" height="80" as="geometry"/>
                </mxCell>
                <mxCell id="11" value="来店予定日" style="ellipse;whiteSpace=wrap;html=1;" vertex="1" parent="1">
                    <mxGeometry x="790" y="370" width="120" height="80" as="geometry"/>
                </mxCell>
                <mxCell id="12" value="来店予定時刻" style="ellipse;whiteSpace=wrap;html=1;" vertex="1" parent="1">
                    <mxGeometry x="950" y="380" width="120" height="80" as="geometry"/>
                </mxCell>
                <mxCell id="13" value="来店人数" style="ellipse;whiteSpace=wrap;html=1;" vertex="1" parent="1">
                    <mxGeometry x="850" y="480" width="120" height="80" as="geometry"/>
                </mxCell>
                <mxCell id="15" value="コースID" style="ellipse;whiteSpace=wrap;html=1;" vertex="1" parent="1">
                    <mxGeometry x="293" y="115" width="120" height="80" as="geometry"/>
                </mxCell>
                <mxCell id="22" value="予約受付番号" style="ellipse;whiteSpace=wrap;html=1;" vertex="1" parent="1">
                    <mxGeometry x="570" y="670" width="120" height="80" as="geometry"/>
                </mxCell>
                <mxCell id="23" value="予約受付ルール" style="ellipse;whiteSpace=wrap;html=1;" vertex="1" parent="1">
                    <mxGeometry x="490" y="830" width="120" height="80" as="geometry"/>
                </mxCell>
                <mxCell id="27" style="edgeStyle=none;html=1;endArrow=none;endFill=0;dashed=1;" edge="1" parent="1" source="26" target="23">
                    <mxGeometry relative="1" as="geometry"/>
                </mxCell>
                <mxCell id="26" value="・来店予定日は予約受付をした日付からであること&lt;br&gt;・予約は来店30分以上前であること" style="shape=note;whiteSpace=wrap;html=1;backgroundOutline=1;darkOpacity=0.05;fillColor=#fff2cc;strokeColor=#d6b656;size=15;align=left;" vertex="1" parent="1">
                    <mxGeometry x="180" y="730" width="330" height="70" as="geometry"/>
                </mxCell>
                <mxCell id="29" value="案内" style="rounded=0;whiteSpace=wrap;html=1;verticalAlign=top;align=left;" vertex="1" parent="1">
                    <mxGeometry x="220" y="-95" width="230" height="130" as="geometry"/>
                </mxCell>
                <mxCell id="30" value="案内日時" style="ellipse;whiteSpace=wrap;html=1;" vertex="1" parent="1">
                    <mxGeometry x="275" y="-70" width="120" height="80" as="geometry"/>
                </mxCell>
                <mxCell id="31" value="予約者" style="rounded=0;whiteSpace=wrap;html=1;verticalAlign=top;align=left;" vertex="1" parent="1">
                    <mxGeometry x="750" y="620" width="400" height="380" as="geometry"/>
                </mxCell>
                <mxCell id="38" value="プロフィール" style="rounded=0;whiteSpace=wrap;html=1;verticalAlign=top;align=left;" vertex="1" parent="1">
                    <mxGeometry x="790" y="820" width="320" height="150" as="geometry"/>
                </mxCell>
                <mxCell id="33" value="連絡先" style="rounded=0;whiteSpace=wrap;html=1;verticalAlign=top;align=left;" vertex="1" parent="1">
                    <mxGeometry x="790" y="650" width="320" height="150" as="geometry"/>
                </mxCell>
                <mxCell id="34" value="電話番号" style="ellipse;whiteSpace=wrap;html=1;" vertex="1" parent="1">
                    <mxGeometry x="820" y="690" width="120" height="80" as="geometry"/>
                </mxCell>
                <mxCell id="35" value="メールアドレス" style="ellipse;whiteSpace=wrap;html=1;" vertex="1" parent="1">
                    <mxGeometry x="960" y="690" width="120" height="80" as="geometry"/>
                </mxCell>
                <mxCell id="36" value="生年月日" style="ellipse;whiteSpace=wrap;html=1;" vertex="1" parent="1">
                    <mxGeometry x="810" y="855" width="120" height="80" as="geometry"/>
                </mxCell>
                <mxCell id="37" value="予約者氏名" style="ellipse;whiteSpace=wrap;html=1;" vertex="1" parent="1">
                    <mxGeometry x="951" y="855" width="120" height="80" as="geometry"/>
                </mxCell>
                <mxCell id="39" value="キャンセル理由" style="ellipse;whiteSpace=wrap;html=1;" vertex="1" parent="1">
                    <mxGeometry x="890" y="160" width="120" height="80" as="geometry"/>
                </mxCell>
                <mxCell id="40" value="キャンセル日時" style="ellipse;whiteSpace=wrap;html=1;" vertex="1" parent="1">
                    <mxGeometry x="1040" y="160" width="120" height="80" as="geometry"/>
                </mxCell>
                <mxCell id="41" value="キャンセル番号" style="ellipse;whiteSpace=wrap;html=1;" vertex="1" parent="1">
                    <mxGeometry x="740" y="160" width="120" height="80" as="geometry"/>
                </mxCell>
                <mxCell id="42" value="キャンセル料(%)" style="ellipse;whiteSpace=wrap;html=1;" vertex="1" parent="1">
                    <mxGeometry x="820" y="20" width="120" height="80" as="geometry"/>
                </mxCell>
                <mxCell id="44" style="edgeStyle=none;html=1;entryX=0.5;entryY=0;entryDx=0;entryDy=0;endArrow=classic;endFill=1;" edge="1" parent="1" source="43" target="42">
                    <mxGeometry relative="1" as="geometry"/>
                </mxCell>
                <mxCell id="43" value="キャンセルポリシー&lt;br&gt;・当日&lt;br&gt;・前日&lt;br&gt;・2日前&lt;br&gt;・2日前以前" style="ellipse;whiteSpace=wrap;html=1;" vertex="1" parent="1">
                    <mxGeometry x="790" y="-120" width="180" height="90" as="geometry"/>
                </mxCell>
                <mxCell id="46" value="キャンセル料(円)" style="ellipse;whiteSpace=wrap;html=1;" vertex="1" parent="1">
                    <mxGeometry x="1110" width="120" height="80" as="geometry"/>
                </mxCell>
                <mxCell id="47" value="キャンセル料&lt;br&gt;徴収日時" style="ellipse;whiteSpace=wrap;html=1;" vertex="1" parent="1">
                    <mxGeometry x="1107" y="-120" width="120" height="80" as="geometry"/>
                </mxCell>
                <mxCell id="51" value="食事人" style="rounded=0;whiteSpace=wrap;html=1;verticalAlign=top;align=left;" vertex="1" parent="1">
                    <mxGeometry x="220" y="-250" width="230" height="130" as="geometry"/>
                </mxCell>
                <mxCell id="52" value="食事人ID" style="ellipse;whiteSpace=wrap;html=1;" vertex="1" parent="1">
                    <mxGeometry x="275" y="-225" width="120" height="80" as="geometry"/>
                </mxCell>
            </root>
        </mxGraphModel>
    </diagram>
    <diagram id="7XWWsDQRxvUYvYYfeE3Y" name="ページ2">
        <mxGraphModel dx="852" dy="768" grid="1" gridSize="10" guides="1" tooltips="1" connect="1" arrows="1" fold="1" page="1" pageScale="1" pageWidth="827" pageHeight="1169" math="0" shadow="0">
            <root>
                <mxCell id="0"/>
                <mxCell id="1" parent="0"/>
            </root>
        </mxGraphModel>
    </diagram>
</mxfile>